<svg id="Flat" height="512" viewBox="0 0 512 512" width="512" xmlns="http://www.w3.org/2000/svg"><path d="m24 24h464v464h-464z" fill="#7e8589" transform="matrix(-1 0 0 -1 512 512)"/><path d="m24 24h464v64h-464z" fill="#e9eef2"/><g fill="#7e8589"><circle cx="120" cy="56" r="8"/><circle cx="88" cy="56" r="8"/><circle cx="56" cy="56" r="8"/><path d="m456 64h-16a8 8 0 0 1 0-16h16a8 8 0 0 1 0 16z"/></g><path d="m72 136h368v160h-368z" fill="#e9eef2"/><path d="m168 352h-96a8 8 0 0 1 0-16h96a8 8 0 0 1 0 16z" fill="#c3c6c7"/><circle cx="312" cy="200" fill="#f7cc38" r="16"/><path d="m352 248-40 16-72-48-48 48-40-16-48 48h304z" fill="#3dc285"/><path d="m232 400h-160a8 8 0 0 1 0-16h160a8 8 0 0 1 0 16z" fill="#c3c6c7"/><path d="m232 448h-160a8 8 0 0 1 0-16h160a8 8 0 0 1 0 16z" fill="#c3c6c7"/><path d="m440 400h-160a8 8 0 0 1 0-16h160a8 8 0 0 1 0 16z" fill="#c3c6c7"/><path d="m440 448h-160a8 8 0 0 1 0-16h160a8 8 0 0 1 0 16z" fill="#c3c6c7"/></svg>