<svg height="512pt" viewBox="-66 0 512 512" width="512pt" xmlns="http://www.w3.org/2000/svg"><path d="m380.773438 190.394531c0 57.550781-29.421876 102.441407-62.191407 147.140625l-128.195312 174.464844-128.199219-174.464844c-32.769531-44.699218-62.1875-89.589844-62.1875-147.148437 0-104.976563 85.398438-190.386719 190.367188-190.386719h.800781c104.617187.429688 189.605469 85.679688 189.605469 190.394531zm0 0" fill="#ff623f"/><path d="m380.773438 190.394531c0 57.550781-29.421876 102.441407-62.191407 147.140625l-128.195312 174.464844v-512h.78125c104.617187.429688 189.605469 85.679688 189.605469 190.394531zm0 0" fill="#e30020"/><path d="m314.113281 190.386719c0 37.628906-16.890625 71.398437-43.480469 94.097656-21.617187 18.46875-49.65625 29.628906-80.246093 29.628906-30.570313 0-58.578125-11.148437-80.199219-29.578125-26.617188-22.710937-43.527344-56.488281-43.527344-94.148437 0-68.21875 55.507813-123.71875 123.726563-123.71875s123.726562 55.5 123.726562 123.71875zm0 0" fill="#fff"/><path d="m314.113281 190.386719c0 37.628906-16.890625 71.398437-43.480469 94.097656-21.617187 18.46875-49.65625 29.628906-80.246093 29.628906v-247.445312c68.21875 0 123.726562 55.5 123.726562 123.71875zm0 0" fill="#d6d6d8"/><path d="m239.816406 155.425781c0 27.261719-22.171875 49.429688-49.429687 49.429688-27.261719 0-49.429688-22.167969-49.429688-49.429688 0-27.25 22.167969-49.429687 49.429688-49.429687 27.257812 0 49.429687 22.179687 49.429687 49.429687zm0 0" fill="#ffdd48"/><path d="m270.632812 259.136719v25.347656c-21.617187 18.46875-49.65625 29.628906-80.246093 29.628906-30.570313 0-58.578125-11.148437-80.199219-29.578125v-25.628906c.160156-34.96875 28.691406-63.371094 63.609375-63.371094h33.230469c35.066406 0 63.605468 28.53125 63.605468 63.601563zm0 0" fill="#0087ff"/><path d="m239.816406 155.425781c0 27.261719-22.171875 49.429688-49.429687 49.429688v-98.859375c27.257812 0 49.429687 22.179687 49.429687 49.429687zm0 0" fill="#fcbe00"/><path d="m270.632812 259.136719v25.347656c-21.617187 18.46875-49.65625 29.628906-80.246093 29.628906v-118.578125h16.640625c35.066406 0 63.605468 28.53125 63.605468 63.601563zm0 0" fill="#4b5be4"/></svg>